<svg width="22" height="22" viewBox="0 0 22 22" fill="none" xmlns="http://www.w3.org/2000/svg">
<g clip-path="url(#clip0_278_1202)">
<path d="M8.24992 4.58337H6.41659C5.93035 4.58337 5.46404 4.77653 5.12022 5.12034C4.77641 5.46416 4.58325 5.93048 4.58325 6.41671V17.4167C4.58325 17.9029 4.77641 18.3693 5.12022 18.7131C5.46404 19.0569 5.93035 19.25 6.41659 19.25H15.5833C16.0695 19.25 16.5358 19.0569 16.8796 18.7131C17.2234 18.3693 17.4166 17.9029 17.4166 17.4167V6.41671C17.4166 5.93048 17.2234 5.46416 16.8796 5.12034C16.5358 4.77653 16.0695 4.58337 15.5833 4.58337H13.7499" stroke="#15549D" stroke-width="1.5" stroke-linecap="round" stroke-linejoin="round"/>
<path d="M8.25 4.58333C8.25 4.0971 8.44315 3.63079 8.78697 3.28697C9.13079 2.94315 9.5971 2.75 10.0833 2.75H11.9167C12.4029 2.75 12.8692 2.94315 13.213 3.28697C13.5568 3.63079 13.75 4.0971 13.75 4.58333C13.75 5.06956 13.5568 5.53588 13.213 5.8797C12.8692 6.22351 12.4029 6.41667 11.9167 6.41667H10.0833C9.5971 6.41667 9.13079 6.22351 8.78697 5.8797C8.44315 5.53588 8.25 5.06956 8.25 4.58333Z" stroke="#15549D" stroke-width="1.5" stroke-linecap="round" stroke-linejoin="round"/>
<path d="M12.8334 10.0834H10.5417C10.1771 10.0834 9.82734 10.2282 9.56948 10.4861C9.31161 10.744 9.16675 11.0937 9.16675 11.4584C9.16675 11.823 9.31161 12.1728 9.56948 12.4306C9.82734 12.6885 10.1771 12.8334 10.5417 12.8334H11.4584C11.8231 12.8334 12.1728 12.9782 12.4307 13.2361C12.6885 13.494 12.8334 13.8437 12.8334 14.2084C12.8334 14.573 12.6885 14.9228 12.4307 15.1806C12.1728 15.4385 11.8231 15.5834 11.4584 15.5834H9.16675" stroke="#15549D" stroke-width="1.5" stroke-linecap="round" stroke-linejoin="round"/>
<path d="M11 15.5833V16.5M11 9.16663V10.0833" stroke="#15549D" stroke-width="1.5" stroke-linecap="round" stroke-linejoin="round"/>
</g>
<defs>
<clipPath id="clip0_278_1202">
<rect width="22" height="22" fill="white"/>
</clipPath>
</defs>
</svg>
