<svg width="20" height="20" viewBox="0 0 20 20" fill="none" xmlns="http://www.w3.org/2000/svg">
<g clip-path="url(#clip0_552_4860)">
<path d="M8.33334 10.8333C8.33334 11.2753 8.50894 11.6992 8.8215 12.0118C9.13406 12.3244 9.55798 12.5 10 12.5C10.442 12.5 10.866 12.3244 11.1785 12.0118C11.4911 11.6992 11.6667 11.2753 11.6667 10.8333C11.6667 10.3913 11.4911 9.96734 11.1785 9.65478C10.866 9.34222 10.442 9.16663 10 9.16663C9.55798 9.16663 9.13406 9.34222 8.8215 9.65478C8.50894 9.96734 8.33334 10.3913 8.33334 10.8333Z" stroke="#0F3C70" stroke-width="1.5" stroke-linecap="round" stroke-linejoin="round"/>
<path d="M6.66666 17.5V16.6667C6.66666 16.2246 6.84225 15.8007 7.15481 15.4882C7.46737 15.1756 7.8913 15 8.33332 15H11.6667C12.1087 15 12.5326 15.1756 12.8452 15.4882C13.1577 15.8007 13.3333 16.2246 13.3333 16.6667V17.5" stroke="#0F3C70" stroke-width="1.5" stroke-linecap="round" stroke-linejoin="round"/>
<path d="M12.5 4.16667C12.5 4.60869 12.6756 5.03262 12.9882 5.34518C13.3007 5.65774 13.7246 5.83333 14.1667 5.83333C14.6087 5.83333 15.0326 5.65774 15.3452 5.34518C15.6577 5.03262 15.8333 4.60869 15.8333 4.16667C15.8333 3.72464 15.6577 3.30072 15.3452 2.98816C15.0326 2.67559 14.6087 2.5 14.1667 2.5C13.7246 2.5 13.3007 2.67559 12.9882 2.98816C12.6756 3.30072 12.5 3.72464 12.5 4.16667Z" stroke="#0F3C70" stroke-width="1.5" stroke-linecap="round" stroke-linejoin="round"/>
<path d="M14.1667 8.33337H15.8333C16.2754 8.33337 16.6993 8.50897 17.0118 8.82153C17.3244 9.13409 17.5 9.55801 17.5 10V10.8334" stroke="#0F3C70" stroke-width="1.5" stroke-linecap="round" stroke-linejoin="round"/>
<path d="M4.16666 4.16667C4.16666 4.60869 4.34225 5.03262 4.65481 5.34518C4.96737 5.65774 5.3913 5.83333 5.83332 5.83333C6.27535 5.83333 6.69927 5.65774 7.01183 5.34518C7.32439 5.03262 7.49999 4.60869 7.49999 4.16667C7.49999 3.72464 7.32439 3.30072 7.01183 2.98816C6.69927 2.67559 6.27535 2.5 5.83332 2.5C5.3913 2.5 4.96737 2.67559 4.65481 2.98816C4.34225 3.30072 4.16666 3.72464 4.16666 4.16667Z" stroke="#0F3C70" stroke-width="1.5" stroke-linecap="round" stroke-linejoin="round"/>
<path d="M2.5 10.8334V10C2.5 9.55801 2.67559 9.13409 2.98816 8.82153C3.30072 8.50897 3.72464 8.33337 4.16667 8.33337H5.83333" stroke="#0F3C70" stroke-width="1.5" stroke-linecap="round" stroke-linejoin="round"/>
</g>
<defs>
<clipPath id="clip0_552_4860">
<rect width="20" height="20" fill="white"/>
</clipPath>
</defs>
</svg>
