<svg width="28" height="28" viewBox="0 0 28 28" fill="none" xmlns="http://www.w3.org/2000/svg">
<circle cx="14" cy="14" r="14" fill="#E9F1FC"/>
<g clip-path="url(#clip0_93_908)">
<path d="M12.3333 14.8333C12.3333 15.2754 12.5089 15.6993 12.8215 16.0118C13.134 16.3244 13.558 16.5 14 16.5C14.442 16.5 14.8659 16.3244 15.1785 16.0118C15.4911 15.6993 15.6667 15.2754 15.6667 14.8333C15.6667 14.3913 15.4911 13.9674 15.1785 13.6548C14.8659 13.3423 14.442 13.1667 14 13.1667C13.558 13.1667 13.134 13.3423 12.8215 13.6548C12.5089 13.9674 12.3333 14.3913 12.3333 14.8333Z" stroke="#0F3C70" stroke-width="1.5" stroke-linecap="round" stroke-linejoin="round"/>
<path d="M10.6667 21.5V20.6667C10.6667 20.2246 10.8423 19.8007 11.1548 19.4882C11.4674 19.1756 11.8913 19 12.3333 19H15.6667C16.1087 19 16.5326 19.1756 16.8452 19.4882C17.1577 19.8007 17.3333 20.2246 17.3333 20.6667V21.5" stroke="#0F3C70" stroke-width="1.5" stroke-linecap="round" stroke-linejoin="round"/>
<path d="M16.5 8.16667C16.5 8.60869 16.6756 9.03262 16.9882 9.34518C17.3007 9.65774 17.7246 9.83333 18.1667 9.83333C18.6087 9.83333 19.0326 9.65774 19.3452 9.34518C19.6577 9.03262 19.8333 8.60869 19.8333 8.16667C19.8333 7.72464 19.6577 7.30072 19.3452 6.98816C19.0326 6.67559 18.6087 6.5 18.1667 6.5C17.7246 6.5 17.3007 6.67559 16.9882 6.98816C16.6756 7.30072 16.5 7.72464 16.5 8.16667Z" stroke="#0F3C70" stroke-width="1.5" stroke-linecap="round" stroke-linejoin="round"/>
<path d="M18.1667 12.3333H19.8333C20.2754 12.3333 20.6993 12.5089 21.0118 12.8215C21.3244 13.134 21.5 13.558 21.5 14V14.8333" stroke="#0F3C70" stroke-width="1.5" stroke-linecap="round" stroke-linejoin="round"/>
<path d="M8.16667 8.16667C8.16667 8.60869 8.34226 9.03262 8.65482 9.34518C8.96738 9.65774 9.39131 9.83333 9.83333 9.83333C10.2754 9.83333 10.6993 9.65774 11.0118 9.34518C11.3244 9.03262 11.5 8.60869 11.5 8.16667C11.5 7.72464 11.3244 7.30072 11.0118 6.98816C10.6993 6.67559 10.2754 6.5 9.83333 6.5C9.39131 6.5 8.96738 6.67559 8.65482 6.98816C8.34226 7.30072 8.16667 7.72464 8.16667 8.16667Z" stroke="#0F3C70" stroke-width="1.5" stroke-linecap="round" stroke-linejoin="round"/>
<path d="M6.5 14.8333V14C6.5 13.558 6.67559 13.134 6.98816 12.8215C7.30072 12.5089 7.72464 12.3333 8.16667 12.3333H9.83333" stroke="#0F3C70" stroke-width="1.5" stroke-linecap="round" stroke-linejoin="round"/>
</g>
<defs>
<clipPath id="clip0_93_908">
<rect width="20" height="20" fill="white" transform="translate(4 4)"/>
</clipPath>
</defs>
</svg>
