<svg width="18" height="18" viewBox="0 0 18 18" fill="none" xmlns="http://www.w3.org/2000/svg">
<path d="M0.789345 0.0773438C0.690869 0.116016 0.543156 0.196875 0.462265 0.256641C0.377857 0.319922 0.261797 0.439453 0.205525 0.527344C0.145736 0.615234 0.0753963 0.773438 0.0437434 0.878906C0.0120905 0.991406 -0.00549443 1.15313 0.00153955 1.26562C0.0120905 1.38867 0.0578114 1.53984 0.128151 1.6875C0.230144 1.89492 0.557224 2.23242 3.79637 5.4668L7.34853 9.01758C0.796379 15.5742 0.170355 16.2211 0.103532 16.3652C0.0578114 16.4707 0.0191245 16.6395 0.00857352 16.7871C-0.00549443 16.9875 0.00505654 17.0719 0.0718793 17.2441C0.121117 17.3742 0.212559 17.5219 0.311034 17.6273C0.398959 17.7188 0.564258 17.8418 0.676801 17.898C0.849134 17.9859 0.919473 18 1.16918 18C1.40833 18 1.49274 17.9859 1.65101 17.9086C1.81631 17.8312 2.36144 17.3004 5.42473 14.2453L9.00151 10.6699C15.42 17.0754 16.1973 17.8312 16.345 17.9051C16.4997 17.9859 16.5736 18 16.8268 18C17.0871 18 17.1539 17.9859 17.3262 17.898C17.4388 17.8418 17.6005 17.7188 17.685 17.6273C17.7729 17.5324 17.8749 17.3848 17.9136 17.2969C17.9698 17.1773 17.9874 17.0648 17.9874 16.8398C17.9874 16.5973 17.9698 16.5059 17.903 16.3652C17.8362 16.2246 17.1222 15.4934 14.2383 12.6035L10.6545 9.01758C17.2805 2.39766 17.7764 1.88789 17.8678 1.70508C17.9452 1.55391 17.9804 1.42734 17.9944 1.24805C18.0085 1.05469 17.998 0.963281 17.9382 0.808594C17.8995 0.703125 17.8186 0.551953 17.7553 0.474609C17.6955 0.397266 17.5865 0.291797 17.5161 0.239063C17.4458 0.189844 17.3016 0.1125 17.1961 0.0738281C17.0906 0.0316406 16.9323 0 16.8444 0C16.7565 0 16.6158 0.0246094 16.5279 0.05625C16.4399 0.0878906 16.3204 0.137109 16.2641 0.165234C16.2078 0.193359 14.5478 1.82461 12.5783 3.78984L9.00151 7.36523C3.45522 1.82461 1.79872 0.193359 1.73893 0.165234C1.68266 0.137109 1.56308 0.0878906 1.47516 0.05625C1.38723 0.0246094 1.23952 0.00351563 1.14104 0.00351563C1.04608 0.00703125 0.88782 0.0386719 0.789345 0.0773438Z" fill="#939598"/>
</svg>
