<svg width="22" height="22" viewBox="0 0 22 22" fill="none" xmlns="http://www.w3.org/2000/svg">
<g clip-path="url(#clip0_278_1160)">
<path d="M12.8334 9.16671C12.8334 8.68048 12.6403 8.21416 12.2964 7.87035C11.9526 7.52653 11.4863 7.33337 11.0001 7.33337C10.5139 7.33337 10.0475 7.52653 9.70372 7.87035C9.3599 8.21416 9.16675 8.68048 9.16675 9.16671C9.16675 9.65294 9.3599 10.1193 9.70372 10.4631C10.0475 10.8069 10.5139 11 11.0001 11C11.4863 11 11.9526 10.8069 12.2964 10.4631C12.6403 10.1193 12.8334 9.65294 12.8334 9.16671Z" stroke="#0F3C70" stroke-width="1.5" stroke-linecap="round" stroke-linejoin="round"/>
<path d="M5.49992 9.16671C5.49992 8.68048 5.30676 8.21416 4.96295 7.87035C4.61913 7.52653 4.15282 7.33337 3.66659 7.33337C3.18036 7.33337 2.71404 7.52653 2.37022 7.87035C2.02641 8.21416 1.83325 8.68048 1.83325 9.16671C1.83325 9.65294 2.02641 10.1193 2.37022 10.4631C2.71404 10.8069 3.18036 11 3.66659 11C4.15282 11 4.61913 10.8069 4.96295 10.4631C5.30676 10.1193 5.49992 9.65294 5.49992 9.16671Z" stroke="#0F3C70" stroke-width="1.5" stroke-linecap="round" stroke-linejoin="round"/>
<path d="M20.1667 9.16671C20.1667 8.68048 19.9735 8.21416 19.6297 7.87035C19.2859 7.52653 18.8196 7.33337 18.3333 7.33337C17.8471 7.33337 17.3808 7.52653 17.037 7.87035C16.6932 8.21416 16.5 8.68048 16.5 9.16671C16.5 9.65294 16.6932 10.1193 17.037 10.4631C17.3808 10.8069 17.8471 11 18.3333 11C18.8196 11 19.2859 10.8069 19.6297 10.4631C19.9735 10.1193 20.1667 9.65294 20.1667 9.16671Z" stroke="#0F3C70" stroke-width="1.5" stroke-linecap="round" stroke-linejoin="round"/>
<path d="M1.83325 14.6666H20.1666" stroke="#0F3C70" stroke-width="1.5" stroke-linecap="round" stroke-linejoin="round"/>
<path d="M3.66675 11V14.6667" stroke="#0F3C70" stroke-width="1.5" stroke-linecap="round" stroke-linejoin="round"/>
<path d="M11 11V14.6667" stroke="#0F3C70" stroke-width="1.5" stroke-linecap="round" stroke-linejoin="round"/>
<path d="M18.3333 11V14.6667" stroke="#0F3C70" stroke-width="1.5" stroke-linecap="round" stroke-linejoin="round"/>
</g>
<defs>
<clipPath id="clip0_278_1160">
<rect width="22" height="22" fill="white"/>
</clipPath>
</defs>
</svg>
