<svg width="42" height="37" viewBox="0 0 42 37" fill="none" xmlns="http://www.w3.org/2000/svg">
<rect x="0.5" y="0.5" width="41" height="36" rx="3.5" fill="white"/>
<rect x="0.5" y="0.5" width="41" height="36" rx="3.5" stroke="#DDDDDD"/>
<path opacity="0.4" d="M21.9993 24.7261L21.0006 25.3707C20.0727 25.9444 18.7835 25.2999 18.7835 24.1524V20.3628C18.7835 19.8599 18.5002 19.2153 18.2098 18.8611L15.4898 15.9994C15.1285 15.6382 14.8452 15.0007 14.8452 14.5686V12.9252C14.8452 12.0682 15.4898 11.4236 16.2761 11.4236H25.7252C26.5114 11.4236 27.1561 12.0682 27.1561 12.8544V14.4269C27.1561 15.0007 26.7948 15.7161 26.4406 16.0702" stroke="#1C2F72" stroke-width="2" stroke-miterlimit="10" stroke-linecap="round" stroke-linejoin="round"/>
<path d="M24.5984 18.422L22.0909 20.9295C21.9917 21.0287 21.8996 21.2128 21.8784 21.3474L21.7438 22.3037C21.6942 22.6508 21.9351 22.8916 22.2822 22.842L23.2384 22.7074C23.3729 22.6862 23.5643 22.5941 23.6563 22.4949L26.1638 19.9874C26.5959 19.5553 26.8013 19.0524 26.1638 18.4149C25.5334 17.7845 25.0305 17.9899 24.5984 18.422Z" stroke="#1C2F72" stroke-width="2" stroke-miterlimit="10" stroke-linecap="round" stroke-linejoin="round"/>
<path d="M24.2441 18.7764C24.4566 19.5414 25.0516 20.1364 25.8166 20.3489" stroke="#1C2F72" stroke-width="2" stroke-miterlimit="10" stroke-linecap="round" stroke-linejoin="round"/>
</svg>
