<svg width="14" height="14" viewBox="0 0 14 14" fill="none" xmlns="http://www.w3.org/2000/svg">
<path fill-rule="evenodd" clip-rule="evenodd" d="M8.94119 10.5101C8.94108 10.7518 8.74511 10.9476 8.50349 10.9474L3.49599 10.9452C3.37996 10.9451 3.2687 10.899 3.18669 10.8169C3.10468 10.7348 3.05864 10.6235 3.05869 10.5075L3.06098 5.49996C3.06109 5.25833 3.25706 5.06255 3.49868 5.06266C3.74031 5.06277 3.93609 5.25873 3.93598 5.50036L3.93389 10.0704L8.50389 10.0724C8.74551 10.0726 8.9413 10.2685 8.94119 10.5101Z" fill="#E85C2E"/>
<path fill-rule="evenodd" clip-rule="evenodd" d="M10.821 3.18949C10.9918 3.36042 10.9917 3.63743 10.8208 3.80821L3.87556 10.7471C3.70463 10.9178 3.42762 10.9177 3.25684 10.7468C3.08607 10.5758 3.08619 10.2988 3.25713 10.1281L10.2023 3.18921C10.3733 3.01843 10.6503 3.01856 10.821 3.18949Z" fill="#E85C2E"/>
</svg>
