<svg width="14" height="14" viewBox="0 0 14 14" fill="none" xmlns="http://www.w3.org/2000/svg">
<path fill-rule="evenodd" clip-rule="evenodd" d="M5.0604 3.49396C5.0604 3.25233 5.25627 3.05646 5.4979 3.05646L10.5054 3.05646C10.6214 3.05646 10.7327 3.10255 10.8148 3.1846C10.8968 3.26665 10.9429 3.37793 10.9429 3.49396L10.9429 8.50145C10.9429 8.74308 10.747 8.93895 10.5054 8.93895C10.2638 8.93895 10.0679 8.74308 10.0679 8.50145L10.0679 3.93146L5.4979 3.93146C5.25627 3.93146 5.0604 3.73558 5.0604 3.49396Z" fill="#1A932E"/>
<path fill-rule="evenodd" clip-rule="evenodd" d="M3.1839 10.8155C3.01305 10.6446 3.01305 10.3676 3.1839 10.1967L10.1259 3.25472C10.2968 3.08387 10.5738 3.08387 10.7446 3.25472C10.9155 3.42558 10.9155 3.70259 10.7446 3.87344L3.80262 10.8155C3.63177 10.9863 3.35476 10.9863 3.1839 10.8155Z" fill="#1A932E"/>
</svg>
