<svg width="11" height="8" viewBox="0 0 11 8" fill="none" xmlns="http://www.w3.org/2000/svg">
<path d="M10.217 0.0553191C10.1332 0.0978723 9.36385 0.846809 6.7894 3.39574L3.46926 6.68085C1.45354 4.68936 0.834641 4.09362 0.793811 4.07234C0.740087 4.04468 0.671321 4.03404 0.557426 4.03191C0.437084 4.03191 0.374765 4.04255 0.310296 4.07447C0.265168 4.09787 0.19855 4.14681 0.162018 4.18085C0.127635 4.21489 0.0739109 4.29787 0.0459745 4.3617C0.00299538 4.45532 -0.00560044 4.50213 0.00299538 4.59574C0.00944225 4.65957 0.0352297 4.75532 0.0631661 4.80851C0.0975494 4.8766 0.535936 5.32553 1.61686 6.39787C2.82887 7.59574 3.14692 7.9 3.23932 7.94468C3.31883 7.98298 3.38545 8 3.46926 8C3.55307 8 3.61969 7.98298 3.70135 7.94468C3.79375 7.9 4.45133 7.25745 7.35242 4.38723C10.6102 1.1617 10.8961 0.87234 10.9498 0.755319C10.9971 0.651064 11.0056 0.606383 10.9971 0.510638C10.9906 0.446808 10.9648 0.355319 10.9412 0.308511C10.9175 0.261702 10.866 0.193617 10.8251 0.157447C10.7865 0.119149 10.7134 0.0702127 10.6618 0.0446808C10.6016 0.0148936 10.5329 0 10.4469 0C10.3588 0.00212766 10.2943 0.0170212 10.217 0.0553191Z" fill="#C6C8CA"/>
</svg>
